#!OML:ASF E:\pregnant2\Project 1\Capture day 1\Session 1\pregnant2.ASF
:FULLY-SPECIFIED
:DEGREES
1367
root 6.50012 16.7956 14.738 25.3316 -4.41325 4.02209
lowerback -7.94493 -1.62889 -5.49952
upperback -16.4405 -2.21302 0.789395
thorax -13.3661 -0.358888 4.003
lowerneck -8.87422 -0.673796 -4.32467
upperneck 49.466 1.53823 -3.11846
head 21.9092 -0.733835 -0.579363
rclavicle 5.46658e-015 6.36111e-015
rhumerus -61.1804 4.95867 -78.0725
rradius 29.5789
rwrist 15.4693
rhand -8.31477 -11.1801
rfingers 7.12502
rthumb 17.606 -40.403
lclavicle 5.46658e-015 6.36111e-015
lhumerus -53.8574 -6.25978 86.4575
lradius 67.2163
lwrist 6.27635
lhand -15.2894 28.412
lfingers 7.12502
lthumb 10.8856 58.1098
rfemur -57.0818 -0.0891752 17.2136
rtibia 72.6818
rfoot -7.14501 -9.22786
rtoes -5.00384
lfemur -39.0544 -9.42185 -28.4912
ltibia 33.9359
lfoot -15.422 12.728
ltoes -14.665
1368
root 6.50728 16.7786 14.8513 25.3835 -4.33046 3.99717
lowerback -7.96662 -1.70576 -5.56596
upperback -16.4728 -2.31049 0.86773
thorax -13.3797 -0.391036 4.1297
lowerneck -8.43672 -0.638595 -4.4075
upperneck 49.261 1.46717 -2.94836
head 21.4755 -0.736196 -0.520808
rclavicle -1.2424e-014 -8.74653e-015
rhumerus -61.7865 5.40455 -78.2071
rradius 29.5769
rwrist 15.6042
rhand -8.06018 -11.071
rfingers 7.12502
rthumb 17.8509 -40.2717
lclavicle -1.2424e-014 -8.74653e-015
lhumerus -53.783 -6.90867 86.7186
lradius 68.8752
lwrist 6.27443
lhand -15.3897 28.1328
lfingers 7.12502
lthumb 10.7889 57.8357
rfemur -57.7946 0.200345 17.3233
rtibia 71.6044
rfoot -7.75544 -9.21942
rtoes -5.37637
lfemur -38.8105 -9.42095 -28.569
ltibia 34.2643
lfoot -15.9629 12.8181
ltoes -14.8019
1369
root 6.51384 16.7631 14.9656 25.4446 -4.2419 3.9599
lowerback -7.99562 -1.77802 -5.62186
upperback -16.5112 -2.40095 0.949604
thorax -13.3967 -0.420418 4.2542
lowerneck -8.48278 -0.626175 -4.39918
upperneck 49.1692 1.43673 -2.85686
head 21.4118 -0.733732 -0.47615
rclavicle 9.83984e-015 2.70347e-014
rhumerus -62.3913 5.81609 -78.3302
rradius 29.5985
rwrist 15.5685
rhand -7.93135 -11.0828
rfingers 7.12502
rthumb 17.9749 -40.2721
lclavicle 9.83984e-015 2.70347e-014
lhumerus -53.6821 -7.55884 86.9727
lradius 70.4262
lwrist 6.24585
lhand -15.5411 27.7517
lfingers 7.12502
lthumb 10.6428 57.4622
rfemur -58.4489 0.50259 17.4195
rtibia 70.3598
rfoot -8.32255 -9.29918
rtoes -5.56651
lfemur -38.5476 -9.42725 -28.6257
ltibia 34.5411
lfoot -16.4737 12.9147
ltoes -14.963
1370
root 6.51986 16.7501 15.0802 25.513 -4.14194 3.91475
lowerback -8.03069 -1.84858 -5.67024
upperback -16.5533 -2.48841 1.03442
thorax -13.415 -0.448792 4.37761
lowerneck -8.54043 -0.623559 -4.40788
upperneck 49.077 1.39463 -2.7614
head 21.3522 -0.738499 -0.428747
rclavicle -8.64713e-015 -1.03368e-014
rhumerus -62.9852 6.18012 -78.4236
rradius 29.6395
rwrist 15.3872
rhand -7.90099 -11.1899
rfingers 7.12502
rthumb 18.0041 -40.3766
lclavicle -8.64713e-015 -1.03368e-014
lhumerus -53.5517 -8.20721 87.2182
lradius 71.8664
lwrist 6.19782
lhand -15.7198 27.3496
lfingers 7.12502
lthumb 10.4704 57.0689
rfemur -59.035 0.808027 17.4985
rtibia 68.9401
rfoot -8.85631 -9.45609
rtoes -5.62228
lfemur -38.2571 -9.46579 -28.656
ltibia 34.748
lfoot -16.9368 13.0341
ltoes -15.1587
1371
root 6.52488 16.7401 15.1953 25.5925 -4.02877 3.87048
lowerback -8.07026 -1.91983 -5.72636
upperback -16.6042 -2.57624 1.12344
thorax -13.441 -0.475387 4.51013
lowerneck -8.60105 -0.629937 -4.41874
upperneck 48.9916 1.34551 -2.67916
head 21.2999 -0.748042 -0.389752
rclavicle -4.1049e-014 -1.66979e-014
rhumerus -63.5717 6.49367 -78.4734
rradius 29.6916
rwrist 15.0801
rhand -7.97738 -11.3327
rfingers 7.12502
rthumb 17.9306 -40.5261
lclavicle -4.1049e-014 -1.66979e-014
lhumerus -53.404 -8.84824 87.4585
lradius 73.1929
lwrist 6.14368
lhand -15.8476 26.9409
lfingers 7.12502
lthumb 10.3471 56.6663
rfemur -59.5535 1.11244 17.5501
rtibia 67.3432
rfoot -9.36351 -9.69249
rtoes -5.53056
lfemur -37.9381 -9.54432 -28.6644
ltibia 34.872
lfoot -17.3406 13.1697
ltoes -15.3447
1372
root 6.52909 16.733 15.3107 25.6852 -3.90354 3.82936
lowerback -8.11769 -1.99216 -5.78928
upperback -16.661 -2.66481 1.21477
thorax -13.4691 -0.500935 4.64894
lowerneck -8.67307 -0.641646 -4.43105
upperneck 48.9047 1.29585 -2.60999
head 21.2509 -0.759574 -0.35769
rclavicle 2.18663e-015 1.03368e-014
rhumerus -64.1353 6.74719 -78.4694
rradius 29.7427
rwrist 14.6751
rhand -8.14157 -11.5026
rfingers 7.12502
rthumb 17.7726 -40.7104
lclavicle 2.18663e-015 1.03368e-014
lhumerus -53.2352 -9.48054 87.6929
lradius 74.4136
lwrist 6.08779
lhand -15.9131 26.6083
lfingers 7.12502
lthumb 10.284 56.3368
rfemur -60.0034 1.41883 17.5656
rtibia 65.5683
rfoot -9.84072 -10.0044
rtoes -5.28604
lfemur -37.5899 -9.66355 -28.6548
ltibia 34.9057
lfoot -17.674 13.3238
ltoes -15.5554
1373
root 6.53257 16.7289 15.4268 25.7961 -3.77014 3.79287
lowerback -8.17908 -2.0648 -5.85821
upperback -16.7266 -2.75288 1.30748
thorax -13.4998 -0.524934 4.79237
lowerneck -8.74257 -0.666797 -4.45272
upperneck 48.8111 1.23004 -2.5484
head 21.1967 -0.779848 -0.330902
rclavicle -2.127e-014 2.38542e-015
rhumerus -64.6793 6.944 -78.409
rradius 29.7951
rwrist 14.1877
rhand -8.37958 -11.6547
rfingers 7.12502
rthumb 17.5436 -40.8831
lclavicle -2.127e-014 2.38542e-015
lhumerus -53.0578 -10.0986 87.9221
lradius 75.5336
lwrist 6.03322
lhand -15.9392 26.3073
lfingers 7.12502
lthumb 10.2588 56.0371
rfemur -60.3882 1.72798 17.5384
rtibia 63.6169
rfoot -10.2809 -10.3952
rtoes -4.95154
lfemur -37.2167 -9.81787 -28.6309
ltibia 34.8488
lfoot -17.9439 13.4876
ltoes -15.7639
1374
root 6.53552 16.7275 15.5444 25.9267 -3.63592 3.75716
lowerback -8.25816 -2.13607 -5.92756
upperback -16.8023 -2.83805 1.40081
thorax -13.5327 -0.546984 4.93631
lowerneck -8.7985 -0.694688 -4.48403
upperneck 48.7091 1.1626 -2.48842
head 21.1322 -0.802413 -0.303289
rclavicle 1.87852e-014 9.54166e-015
rhumerus -65.2022 7.08621 -78.2914
rradius 29.8404
rwrist 13.6523
rhand -8.66893 -11.7955
rfingers 7.12502
rthumb 17.2651 -41.0485
lclavicle 1.87852e-014 9.54166e-015
lhumerus -52.88 -10.6974 88.1445
lradius 76.5506
lwrist 5.98773
lhand -15.9611 25.972
lfingers 7.12502
lthumb 10.2377 55.7029
rfemur -60.7066 2.0472 17.4653
rtibia 61.4924
rfoot -10.6832 -10.8574
rtoes -4.55526
lfemur -36.8164 -9.99126 -28.5958
ltibia 34.6997
lfoot -18.1563 13.651
ltoes -15.9695
1375
root 6.53833 16.7285 15.6631 26.0755 -3.50556 3.72194
lowerback -8.35047 -2.20392 -5.99362
upperback -16.8897 -2.91809 1.49312
thorax -13.573 -0.566327 5.07709
lowerneck -8.83965 -0.72757 -4.54104
upperneck 48.6023 1.08754 -2.41528
head 21.0599 -0.830877 -0.265388
rclavicle -3.27995e-015 3.97569e-016
rhumerus -65.7076 7.17575 -78.1131
rradius 29.8891
rwrist 13.1149
rhand -8.95402 -11.9423
rfingers 7.12502
rthumb 16.9907 -41.2192
lclavicle -3.27995e-015 3.97569e-016
lhumerus -52.7061 -11.2749 88.3621
lradius 77.4658
lwrist 5.95514
lhand -15.9885 25.6328
lfingers 7.12502
lthumb 10.2112 55.365
rfemur -60.9607 2.37575 17.3432
rtibia 59.2004
rfoot -11.0493 -11.3754
rtoes -4.12011
lfemur -36.3902 -10.1655 -28.5574
ltibia 34.459
lfoot -18.3164 13.8004
ltoes -16.178
1376
root 6.54091 16.7326 15.7837 26.2367 -3.37729 3.69103
lowerback -8.45814 -2.27058 -6.05902
upperback -16.9843 -2.99578 1.58319
thorax -13.6136 -0.584513 5.21455
lowerneck -8.87266 -0.764628 -4.61416
upperneck 48.4892 1.00698 -2.33576
head 20.9808 -0.863473 -0.222194
rclavicle 0 -2.26615e-014
rhumerus -66.1868 7.21894 -77.8812
rradius 29.9247
rwrist 12.5992
rhand -9.2199 -12.0954
rfingers 7.12502
rthumb 16.7347 -41.3941
lclavicle 0 -2.26615e-014
lhumerus -52.5384 -11.8264 88.5738
lradius 78.2804
lwrist 5.9367
lhand -16.0286 25.2863
lfingers 7.12502
lthumb 10.1725 55.0204
rfemur -61.1391 2.7105 17.1678
rtibia 56.7485
rfoot -11.3777 -11.9326
rtoes -3.6884
lfemur -35.9238 -10.331 -28.5235
ltibia 34.1217
lfoot -18.432 13.9257
ltoes -16.3934
1377
root 6.54317 16.7392 15.9063 26.4053 -3.25201 3.6652
lowerback -8.57538 -2.33544 -6.12693
upperback -17.0856 -3.07057 1.67193
thorax -13.6573 -0.600616 5.35175
lowerneck -8.90784 -0.804139 -4.69248
upperneck 48.3782 0.926594 -2.26021
head 20.9052 -0.897458 -0.180394
rclavicle -1.78906e-015 3.97569e-016
rhumerus -66.6386 7.22458 -77.6012
rradius 29.9434
rwrist 12.1233
rhand -9.45697 -12.2525
rfingers 7.12502
rthumb 16.5065 -41.5704
lclavicle -1.78906e-015 3.97569e-016
lhumerus -52.3777 -12.3486 88.785
lradius 78.9925
lwrist 5.93088
lhand -16.0351 24.9983
lfingers 7.12502
lthumb 10.1663 54.7327
rfemur -61.2413 3.05556 16.9345
rtibia 54.1522
rfoot -11.6769 -12.5169
rtoes -3.27055
lfemur -35.4102 -10.4679 -28.5017
ltibia 33.682
lfoot -18.5061 14.006
ltoes -16.6141
1378
root 6.5453 16.749 16.0298 26.5772 -3.12097 3.64673
lowerback -8.70295 -2.40143 -6.19405
upperback -17.1873 -3.14616 1.7581
thorax -13.6952 -0.617542 5.48514
lowerneck -8.95972 -0.846463 -4.78244
upperneck 48.2688 0.846867 -2.18406
head 20.8369 -0.93334 -0.136386
rclavicle 3.37934e-014 -5.1684e-015
rhumerus -67.0513 7.19616 -77.2804
rradius 29.9427
rwrist 11.7005
rhand -9.64981 -12.4268
rfingers 7.12502
rthumb 16.3208 -41.76
lclavicle 3.37934e-014 -5.1684e-015
lhumerus -52.212 -12.8383 88.9925
lradius 79.5978
lwrist 5.93111
lhand -16.0074 24.7674
lfingers 7.12502
lthumb 10.193 54.5005
rfemur -61.2668 3.40682 16.6392
rtibia 51.4317
rfoot -11.9564 -13.1184
rtoes -2.92933
lfemur -34.8421 -10.5846 -28.4904
ltibia 33.1283
lfoot -18.5293 14.0403
ltoes -16.8526
1379
root 6.54666 16.762 16.1543 26.7485 -2.9828 3.63998
lowerback -8.83312 -2.46983 -6.27403
upperback -17.2878 -3.22451 1.8437
thorax -13.7294 -0.634193 5.62489
lowerneck -9.03756 -0.89468 -4.86646
upperneck 48.1671 0.766841 -2.12553
head 20.7838 -0.97068 -0.103284
rclavicle -1.15295e-014 -3.06128e-014
rhumerus -67.4244 7.14595 -76.9333
rradius 29.9197
rwrist 11.3313
rhand -9.8134 -12.5915
rfingers 7.12502
rthumb 16.1633 -41.9376
lclavicle -1.15295e-014 -3.06128e-014
lhumerus -52.0458 -13.2924 89.2012
lradius 80.1026
lwrist 5.93644
lhand -15.9505 24.5764
lfingers 7.12502
lthumb 10.2479 54.3067
rfemur -61.2198 3.77712 16.2684
rtibia 48.6191
rfoot -12.2146 -13.7664
rtoes -2.70757
lfemur -34.2126 -10.6695 -28.4951
ltibia 32.4531
lfoot -18.5009 14.0098
ltoes -17.095
1380
root 6.54704 16.7786 16.2798 26.9113 -2.83376 3.64361
lowerback -8.9663 -2.53064 -6.3512
upperback -17.3816 -3.29332 1.90986
thorax -13.7554 -0.648524 5.74051
lowerneck -9.14107 -0.951638 -4.93352
upperneck 48.072 0.673928 -2.07338
head 20.7443 -1.0107 -0.0794341
rclavicle 2.64384e-014 1.23246e-014
rhumerus -67.7589 7.03556 -76.5663
rradius 29.8639
rwrist 11.0297
rhand -9.9665 -12.7432
rfingers 7.12502
rthumb 16.0159 -42.1012
lclavicle 2.64384e-014 1.23246e-014
lhumerus -51.8714 -13.7514 89.406
lradius 80.5034
lwrist 5.9422
lhand -15.8133 24.4807
lfingers 7.12502
lthumb 10.3803 54.2045
rfemur -61.0993 4.19267 15.8012
rtibia 45.756
rfoot -12.4713 -14.4989
rtoes -2.47535
lfemur -33.5079 -10.7209 -28.514
ltibia 31.6467
lfoot -18.413 13.9109
ltoes -17.3529
